<svg xmlns="http://www.w3.org/2000/svg" xmlns:xlink="http://www.w3.org/1999/xlink" width="460" zoomAndPan="magnify" viewBox="0 0 345 126.749998" height="169" preserveAspectRatio="xMidYMid meet" version="1.0"><defs><clipPath id="5e3945d334"><path d="M 0.339844 0 L 344.660156 0 L 344.660156 126.5 L 0.339844 126.5 Z M 0.339844 0 " clip-rule="nonzero"/></clipPath></defs><g clip-path="url(#5e3945d334)"><path fill="#ffffff" d="M 0.339844 0 L 344.660156 0 L 344.660156 133.238281 L 0.339844 133.238281 Z M 0.339844 0 " fill-opacity="1" fill-rule="nonzero"/><path fill="#ffffff" d="M 0.339844 0 L 344.660156 0 L 344.660156 126.5 L 0.339844 126.5 Z M 0.339844 0 " fill-opacity="1" fill-rule="nonzero"/><path fill="#ffffff" d="M 0.339844 0 L 344.660156 0 L 344.660156 126.5 L 0.339844 126.5 Z M 0.339844 0 " fill-opacity="1" fill-rule="nonzero"/></g><path fill="#231f20" d="M 66.179688 68.308594 C 79.921875 58.765625 78.394531 81.707031 78.394531 81.707031 C 77.8125 89.28125 76.941406 100.351562 65.886719 96.855469 C 65.886719 96.855469 66.179688 68.308594 66.179688 68.308594 Z M 66.179688 68.308594 " fill-opacity="1" fill-rule="nonzero"/><path fill="#ffffff" d="M 62.367188 97.648438 C 66.464844 97.875 68.863281 91.867188 70.148438 88.769531 C 71.789062 84.816406 73.242188 78.15625 71.4375 74.101562 C 71.625 74.523438 69.226562 76.460938 69.597656 77.296875 C 71.390625 81.324219 69.996094 94.777344 64.203125 94.457031 C 63.433594 94.414062 62.644531 97.664062 62.367188 97.648438 Z M 62.367188 97.648438 " fill-opacity="1" fill-rule="nonzero"/><path fill="#eb242d" d="M 66.390625 103.03125 C 67.644531 105.546875 69.632812 106.492188 71.726562 106.492188 C 75.078125 106.386719 80.835938 103.238281 80.835938 81.742188 C 80.835938 68.527344 78.113281 65.90625 72.460938 65.90625 C 70.261719 65.90625 68.167969 66.742188 66.390625 68.105469 C 66.390625 68.105469 66.390625 103.03125 66.390625 103.03125 Z M 57.910156 62.550781 C 62.199219 59.925781 67.539062 58.460938 73.195312 58.460938 C 83.558594 58.460938 90.257812 63.597656 90.257812 80.796875 C 90.257812 109.007812 80.523438 114.039062 74.449219 114.039062 C 70.574219 114.039062 67.957031 112.78125 66.390625 111.105469 C 66.390625 111.105469 64.644531 113.585938 64.644531 113.585938 C 63.289062 114.988281 63.351562 115.964844 61.363281 115.964844 C 58.429688 115.964844 57.910156 115.335938 57.910156 112.398438 C 57.910156 112.398438 57.910156 62.550781 57.910156 62.550781 Z M 57.910156 62.550781 " fill-opacity="1" fill-rule="nonzero"/><path fill="#ea252e" d="M 60.359375 61.652344 C 55.984375 38.609375 29.210938 21.726562 6.824219 30.355469 C 5.71875 30.78125 6.511719 32.4375 7.609375 32.015625 C 28.886719 23.816406 54.410156 40.167969 58.550781 61.96875 C 58.773438 63.132812 60.582031 62.816406 60.359375 61.652344 Z M 60.359375 61.652344 " fill-opacity="1" fill-rule="nonzero"/><path fill="#eb222c" d="M 100.742188 5.558594 C 78.046875 11.167969 62.542969 38.824219 72.375 60.765625 C 72.859375 61.847656 74.515625 61.058594 74.03125 59.976562 C 64.710938 39.171875 79.527344 12.691406 101.0625 7.371094 C 102.203125 7.085938 101.894531 5.273438 100.742188 5.558594 Z M 100.742188 5.558594 " fill-opacity="1" fill-rule="nonzero"/><path fill="#6d7479" d="M 147.882812 56.097656 C 147.882812 56.097656 144.582031 60.386719 144.582031 60.386719 C 135.789062 54.710938 128.421875 51.871094 122.488281 51.871094 C 115.394531 51.871094 110.171875 54.203125 106.820312 58.871094 C 105.5 60.703125 104.839844 63.425781 104.839844 67.035156 C 104.839844 67.035156 104.734375 67.035156 104.734375 67.035156 C 104.734375 67.035156 104.734375 72.414062 104.734375 72.414062 C 104.734375 72.414062 104.839844 72.414062 104.839844 72.414062 C 104.839844 72.414062 104.839844 111.886719 104.839844 111.886719 C 104.839844 111.886719 98.613281 111.886719 98.613281 111.886719 C 98.613281 111.886719 98.613281 72.414062 98.613281 72.414062 C 98.613281 72.414062 98.613281 67.035156 98.613281 67.035156 C 98.613281 63.398438 99.21875 60.367188 100.433594 57.9375 C 103.574219 51.652344 109.25 47.902344 117.460938 46.691406 C 118.175781 46.636719 119.335938 46.5 120.933594 46.277344 C 120.933594 46.277344 122.503906 46.277344 122.503906 46.277344 C 127.464844 46.277344 132.503906 47.515625 137.632812 49.988281 C 139.726562 51.035156 143.140625 53.070312 147.882812 56.097656 Z M 147.882812 56.097656 " fill-opacity="1" fill-rule="nonzero"/><path fill="#6d7479" d="M 136.847656 79.707031 C 136.074219 77.671875 134.09375 75.777344 130.898438 74.015625 C 130.015625 73.523438 128.835938 73.273438 127.347656 73.273438 C 124.429688 73.273438 121.316406 74.347656 118.015625 76.492188 C 121.042969 77.925781 122.558594 80.179688 122.558594 83.257812 C 122.558594 84.46875 122.28125 85.707031 121.730469 86.972656 C 121.730469 86.972656 136.847656 79.707031 136.847656 79.707031 Z M 152.890625 72.414062 C 152.890625 72.414062 147.953125 72.414062 147.953125 72.414062 C 147.953125 72.414062 147.953125 111.886719 147.953125 111.886719 C 147.953125 111.886719 141.9375 111.886719 141.9375 111.886719 C 141.9375 111.886719 141.9375 88.273438 141.9375 88.273438 C 141.9375 87.335938 141.59375 86.375 140.902344 85.382812 C 140.847656 85.273438 140.671875 85.078125 140.386719 84.804688 C 133.894531 87.734375 126.414062 91.488281 117.945312 96.070312 C 117.945312 96.070312 115.125 91.617188 115.125 91.617188 C 116.335938 89.195312 116.941406 87.132812 116.941406 85.429688 C 116.941406 82.625 116.089844 80.890625 114.382812 80.230469 C 113.996094 80.066406 112.976562 79.902344 111.328125 79.734375 C 111.328125 79.734375 109.511719 74.949219 109.511719 74.949219 C 110.941406 73.136719 113.535156 71.265625 117.285156 69.339844 C 119.824219 68.019531 123.019531 67.359375 126.882812 67.359375 C 130.574219 67.359375 133.527344 68.152344 135.734375 69.742188 C 137.222656 70.785156 138.847656 72.511719 140.613281 74.925781 C 140.890625 75.308594 141.332031 75.914062 141.9375 76.734375 C 141.9375 76.734375 141.9375 67.035156 141.9375 67.035156 C 141.9375 67.035156 152.890625 67.035156 152.890625 67.035156 C 152.890625 67.035156 152.890625 72.414062 152.890625 72.414062 Z M 152.890625 72.414062 " fill-opacity="1" fill-rule="nonzero"/><path fill="#6d7479" d="M 179.871094 79.707031 C 179.097656 77.671875 177.117188 75.777344 173.925781 74.015625 C 173.042969 73.523438 171.859375 73.273438 170.375 73.273438 C 167.453125 73.273438 164.34375 74.347656 161.042969 76.492188 C 164.066406 77.925781 165.582031 80.179688 165.582031 83.257812 C 165.582031 84.46875 165.308594 85.707031 164.757812 86.972656 C 164.757812 86.972656 179.871094 79.707031 179.871094 79.707031 Z M 195.914062 72.414062 C 195.914062 72.414062 190.976562 72.414062 190.976562 72.414062 C 190.976562 72.414062 190.976562 111.886719 190.976562 111.886719 C 190.976562 111.886719 184.960938 111.886719 184.960938 111.886719 C 184.960938 111.886719 184.960938 88.273438 184.960938 88.273438 C 184.960938 87.335938 184.617188 86.375 183.925781 85.382812 C 183.871094 85.273438 183.699219 85.078125 183.410156 84.804688 C 176.917969 87.734375 169.4375 91.488281 160.96875 96.070312 C 160.96875 96.070312 158.152344 91.617188 158.152344 91.617188 C 159.363281 89.195312 159.96875 87.132812 159.96875 85.429688 C 159.96875 82.625 159.113281 80.890625 157.40625 80.230469 C 157.019531 80.066406 156.003906 79.902344 154.351562 79.734375 C 154.351562 79.734375 152.535156 74.949219 152.535156 74.949219 C 153.96875 73.136719 156.558594 71.265625 160.3125 69.339844 C 162.847656 68.019531 166.046875 67.359375 169.90625 67.359375 C 173.601562 67.359375 176.550781 68.152344 178.757812 69.742188 C 180.246094 70.785156 181.875 72.511719 183.640625 74.925781 C 183.914062 75.308594 184.355469 75.914062 184.960938 76.734375 C 184.960938 76.734375 184.960938 67.035156 184.960938 67.035156 C 184.960938 67.035156 195.914062 67.035156 195.914062 67.035156 C 195.914062 67.035156 195.914062 72.414062 195.914062 72.414062 Z M 195.914062 72.414062 " fill-opacity="1" fill-rule="nonzero"/><path fill="#6d7479" d="M 211.453125 72.414062 C 211.453125 72.414062 206.296875 72.414062 206.296875 72.414062 C 206.296875 72.414062 206.296875 111.886719 206.296875 111.886719 C 206.296875 111.886719 200.070312 111.886719 200.070312 111.886719 C 200.070312 111.886719 200.070312 72.414062 200.070312 72.414062 C 200.070312 72.414062 193.839844 72.414062 193.839844 72.414062 C 193.839844 72.414062 193.839844 67.035156 193.839844 67.035156 C 193.839844 67.035156 200.070312 67.035156 200.070312 67.035156 C 200.070312 66.871094 200.070312 66.652344 200.070312 66.378906 C 200.070312 66.378906 200.070312 65.886719 200.070312 65.886719 C 200.070312 64.074219 199.273438 62.101562 197.679688 59.960938 C 193.675781 54.636719 188.597656 51.976562 182.449219 51.976562 C 177.507812 51.976562 171.773438 53.910156 165.242188 57.78125 C 163.101562 59.035156 161.097656 60.234375 159.230469 61.378906 C 159.230469 61.378906 155.9375 56.933594 155.9375 56.933594 C 160.449219 53.585938 164.277344 51.117188 167.414062 49.527344 C 172.367188 47 177.183594 45.738281 181.859375 45.738281 C 187.96875 45.738281 193.5 47.722656 198.453125 51.683594 C 203.683594 55.863281 206.296875 60.652344 206.296875 66.046875 C 206.296875 66.320312 206.296875 66.652344 206.296875 67.035156 C 206.296875 67.035156 211.453125 67.035156 211.453125 67.035156 C 211.453125 67.035156 211.453125 72.414062 211.453125 72.414062 Z M 211.453125 72.414062 " fill-opacity="1" fill-rule="nonzero"/><path fill="#6d7479" d="M 263.671875 56.097656 C 263.671875 56.097656 260.375 60.386719 260.375 60.386719 C 251.578125 54.710938 244.214844 51.871094 238.277344 51.871094 C 231.1875 51.871094 225.964844 54.203125 222.609375 58.871094 C 221.292969 60.703125 220.632812 63.425781 220.632812 67.035156 C 220.632812 67.035156 226.109375 67.035156 226.109375 67.035156 C 226.109375 67.035156 226.109375 72.414062 226.109375 72.414062 C 226.109375 72.414062 220.632812 72.414062 220.632812 72.414062 C 220.632812 72.414062 220.632812 111.886719 220.632812 111.886719 C 220.632812 111.886719 214.40625 111.886719 214.40625 111.886719 C 214.40625 111.886719 214.40625 72.414062 214.40625 72.414062 C 214.40625 72.414062 209.25 72.414062 209.25 72.414062 C 209.25 72.414062 209.25 67.035156 209.25 67.035156 C 209.25 67.035156 214.40625 67.035156 214.40625 67.035156 C 214.40625 63.398438 215.011719 60.367188 216.222656 57.9375 C 219.363281 51.652344 225.039062 47.902344 233.253906 46.691406 C 233.96875 46.636719 235.125 46.5 236.726562 46.277344 C 236.726562 46.277344 238.296875 46.277344 238.296875 46.277344 C 243.253906 46.277344 248.296875 47.515625 253.421875 49.988281 C 255.515625 51.035156 258.933594 53.070312 263.671875 56.097656 Z M 263.671875 56.097656 " fill-opacity="1" fill-rule="nonzero"/><path fill="#6d7479" d="M 275.96875 72.414062 C 275.96875 72.414062 271.550781 72.414062 271.550781 72.414062 C 271.550781 72.414062 271.550781 112.101562 271.550781 112.101562 C 271.550781 112.101562 265.539062 112.101562 265.539062 112.101562 C 265.539062 112.101562 265.539062 97.09375 265.539062 97.09375 C 265.539062 95.5 264.871094 93.894531 263.542969 92.273438 C 262.214844 90.648438 260.773438 89.839844 259.222656 89.839844 C 257.726562 89.839844 256.355469 90.699219 255.109375 92.417969 C 253.859375 94.136719 253.238281 95.785156 253.238281 97.367188 C 253.238281 97.367188 246.425781 97.367188 246.425781 97.367188 C 246.425781 95.5 245.839844 93.746094 244.671875 92.097656 C 243.390625 90.234375 241.859375 89.300781 240.078125 89.300781 C 238.6875 89.300781 237.347656 89.8125 236.066406 90.832031 C 234.789062 91.851562 234.066406 93.050781 233.898438 94.429688 C 233.898438 94.429688 233.648438 96.5 233.648438 96.5 C 233.648438 96.5 233.648438 97.410156 233.648438 97.410156 C 233.648438 99.671875 234.425781 101.394531 235.984375 102.582031 C 237.542969 103.765625 239.519531 104.359375 241.914062 104.359375 C 242.75 104.359375 243.667969 104.261719 244.671875 104.0625 C 244.671875 104.0625 242.605469 110.273438 242.605469 110.273438 C 241.394531 110.417969 240.621094 110.488281 240.292969 110.488281 C 237.261719 110.488281 234.699219 109.6875 232.609375 108.085938 C 232 107.644531 231.394531 107.148438 230.789062 106.59375 C 229.414062 105.378906 228.339844 103.390625 227.570312 100.628906 C 227.183594 99.246094 226.988281 97.949219 226.988281 96.734375 C 226.988281 92.039062 228.675781 88.335938 232.046875 85.628906 C 234.148438 83.917969 236.882812 83.0625 240.253906 83.0625 C 244.234375 83.0625 247.519531 85.179688 250.121094 89.40625 C 252.992188 85.179688 256.085938 83.0625 259.40625 83.0625 C 260.5625 83.0625 261.765625 83.539062 263.011719 84.488281 C 264.253906 85.441406 265.09375 86.464844 265.539062 87.550781 C 265.539062 87.550781 265.539062 72.414062 265.539062 72.414062 C 265.539062 72.414062 223.445312 72.414062 223.445312 72.414062 C 223.445312 72.414062 223.445312 67.035156 223.445312 67.035156 C 223.445312 67.035156 275.96875 67.035156 275.96875 67.035156 C 275.96875 67.035156 275.96875 72.414062 275.96875 72.414062 Z M 275.96875 72.414062 " fill-opacity="1" fill-rule="nonzero"/><path fill="#6d7479" d="M 298.371094 102.988281 C 298.371094 102.988281 298.371094 80.945312 298.371094 80.945312 C 297.429688 81.277344 296.238281 81.992188 294.800781 83.09375 C 293.25 84.359375 292.117188 85.15625 291.398438 85.488281 C 290.511719 85.875 289.519531 86.644531 288.410156 87.800781 C 287.027344 89.175781 286.085938 90.03125 285.589844 90.359375 C 286.308594 90.742188 287.136719 91.347656 288.078125 92.175781 C 289.128906 93.164062 289.90625 93.828125 290.402344 94.15625 C 292.394531 96.414062 295.050781 99.359375 298.371094 102.988281 Z M 325.476562 72.414062 C 325.476562 72.414062 304.382812 72.414062 304.382812 72.414062 C 304.382812 72.414062 304.382812 74.308594 304.382812 74.308594 C 307.746094 74.308594 311.273438 75.328125 314.964844 77.359375 C 319.648438 79.941406 321.992188 83.429688 321.992188 87.820312 C 321.992188 90.347656 321.222656 92.546875 319.683594 94.410156 C 318.144531 96.28125 316.121094 97.515625 313.621094 98.121094 C 311.117188 98.726562 309.207031 98.863281 307.886719 98.53125 C 307.886719 98.53125 307.886719 92.585938 307.886719 92.585938 C 313.425781 93.140625 316.195312 91.460938 316.195312 87.550781 C 316.195312 85.183594 314.734375 83.339844 311.816406 82.019531 C 309.722656 81.085938 307.246094 80.480469 304.382812 80.203125 C 304.382812 80.203125 304.382812 112.101562 304.382812 112.101562 C 304.382812 112.101562 298.855469 112.101562 298.855469 112.101562 C 297.867188 110.125 296.792969 108.507812 295.640625 107.242188 C 295.199219 106.75 294.238281 105.460938 292.753906 103.375 C 292.148438 102.550781 291.183594 101.589844 289.867188 100.492188 C 288.546875 99.394531 287.695312 98.546875 287.308594 97.941406 C 286.980469 97.5 286.238281 97.0625 285.082031 96.621094 C 281.617188 95.359375 279.03125 94.726562 277.332031 94.726562 C 277.332031 94.726562 275.515625 87.976562 275.515625 87.976562 C 276.183594 87.480469 278.015625 86.328125 281.019531 84.515625 C 282.019531 83.914062 283.910156 82.816406 286.691406 81.226562 C 287.582031 80.511719 289.386719 79.441406 292.113281 78.015625 C 293.839844 76.917969 295.921875 75.679688 298.371094 74.308594 C 298.371094 74.308594 298.371094 72.414062 298.371094 72.414062 C 298.371094 72.414062 273.78125 72.414062 273.78125 72.414062 C 273.78125 72.414062 273.78125 67.035156 273.78125 67.035156 C 273.78125 67.035156 325.476562 67.035156 325.476562 67.035156 C 325.476562 67.035156 325.476562 72.414062 325.476562 72.414062 Z M 325.476562 72.414062 " fill-opacity="1" fill-rule="nonzero"/><path fill="#6d7479" d="M 340.492188 72.414062 C 340.492188 72.414062 335.339844 72.414062 335.339844 72.414062 C 335.339844 72.414062 335.339844 112.101562 335.339844 112.101562 C 335.339844 112.101562 329.324219 112.101562 329.324219 112.101562 C 329.324219 112.101562 329.324219 72.414062 329.324219 72.414062 C 329.324219 72.414062 323.417969 72.414062 323.417969 72.414062 C 323.417969 72.414062 323.417969 67.035156 323.417969 67.035156 C 323.417969 67.035156 340.492188 67.035156 340.492188 67.035156 C 340.492188 67.035156 340.492188 72.414062 340.492188 72.414062 Z M 340.492188 72.414062 " fill-opacity="1" fill-rule="nonzero"/></svg>